<svg xmlns="http://www.w3.org/2000/svg" viewBox="0 0 269.47 106.59"><defs><style>.cls-1,.cls-2{fill:none;stroke-linecap:square;stroke-miterlimit:10;stroke-width:2.59px;}.cls-1{stroke:#d8d8d8;}.cls-2{stroke:#4c757c;}.cls-3{fill:#4d9daa;}.cls-4{fill:#4c757c;}.cls-5{fill:#fff;}</style></defs><g id="Layer_2" data-name="Layer 2"><g id="Layer_1-2" data-name="Layer 1"><path class="cls-1" d="M72.08,76.51c0,12.46-12,22.55-26.76,22.55S18.56,89,18.56,76.51"/><path class="cls-1" d="M1.29,30.08c0-12.46,12-22.56,26.77-22.56s26.76,10.1,26.76,22.56"/><path class="cls-2" d="M44.9,74.73,1.29,31.13c0-16.48,15.85-29.84,35.4-29.84S72.08,14.65,72.08,31.13"/><path class="cls-2" d="M28.48,31.86l43.6,43.6c0,16.48-15.84,29.84-35.39,29.84S1.29,91.94,1.29,75.46"/><circle class="cls-3" cx="47.86" cy="64.46" r="4.52"/><circle class="cls-3" cx="56.89" cy="73.5" r="3.01"/><circle class="cls-3" cx="25.52" cy="42.13" r="4.52"/><circle class="cls-3" cx="16.49" cy="33.09" r="3.01"/><circle class="cls-3" cx="36.69" cy="53.29" r="6.02"/><path class="cls-4" d="M105.06,40.7a7.73,7.73,0,0,1-3.15,3,10.66,10.66,0,0,1-5.22,1.17,12.6,12.6,0,0,1-5.37-1.1,9.69,9.69,0,0,1-3.75-3A8.65,8.65,0,0,1,86,36.39h4.19a5.92,5.92,0,0,0,3,4.55,6.75,6.75,0,0,0,3.39.8,5.36,5.36,0,0,0,4-1.38,4.79,4.79,0,0,0,1.38-3.54,4.56,4.56,0,0,0-1-3A6.79,6.79,0,0,0,98.55,32a32.05,32.05,0,0,0-3.88-1.45A39.15,39.15,0,0,1,90,28.73a8,8,0,0,1-3-2.52,7.41,7.41,0,0,1-1.22-4.44A7.72,7.72,0,0,1,87,17.58a7.48,7.48,0,0,1,3.28-2.8,11.8,11.8,0,0,1,5-1A10.85,10.85,0,0,1,102.39,16a8.35,8.35,0,0,1,3.06,5.54h-4.23a5.73,5.73,0,0,0-1.85-3.19,5.85,5.85,0,0,0-4.1-1.38,5.57,5.57,0,0,0-3.79,1.23,4.33,4.33,0,0,0-1.43,3.47A4.31,4.31,0,0,0,91,24.51a6.42,6.42,0,0,0,2.31,1.72,34.65,34.65,0,0,0,3.79,1.4,39,39,0,0,1,4.73,1.82,8,8,0,0,1,3,2.61,7.81,7.81,0,0,1,1.25,4.63A8.07,8.07,0,0,1,105.06,40.7Z"/><path class="cls-4" d="M122.66,41.13v3.45h-2.93c-2.42,0-4.22-.57-5.42-1.72s-1.79-3.08-1.79-5.78V24.31H109v-3.4h3.53V15h4v5.91h6.13v3.4h-6.13V37.17a4.42,4.42,0,0,0,.84,3.12,4,4,0,0,0,2.91.84Z"/><path class="cls-4" d="M143,22.33a9,9,0,0,1,3.35,4.61v-6h3.92V44.58h-3.92v-6A9,9,0,0,1,143,43.16a9.71,9.71,0,0,1-5.84,1.73,10.72,10.72,0,0,1-5.61-1.47,10.17,10.17,0,0,1-3.86-4.21,14,14,0,0,1-1.4-6.44,14.15,14.15,0,0,1,1.4-6.47,10.17,10.17,0,0,1,3.86-4.23,10.72,10.72,0,0,1,5.61-1.47A9.71,9.71,0,0,1,143,22.33ZM132.47,26.4a8.92,8.92,0,0,0-2.18,6.37,8.91,8.91,0,0,0,2.18,6.36,7.6,7.6,0,0,0,5.8,2.31,8,8,0,0,0,4.16-1.08,7.52,7.52,0,0,0,2.87-3,9.63,9.63,0,0,0,1-4.55,9.79,9.79,0,0,0-1-4.58,7.39,7.39,0,0,0-2.87-3,8.22,8.22,0,0,0-4.16-1A7.63,7.63,0,0,0,132.47,26.4Z"/><path class="cls-4" d="M167.81,41.13v3.45h-2.93c-2.41,0-4.22-.57-5.41-1.72s-1.79-3.08-1.79-5.78V24.31h-3.54v-3.4h3.54V15h4v5.91h6.12v3.4h-6.12V37.17a4.42,4.42,0,0,0,.84,3.12,4,4,0,0,0,2.91.84Z"/><path class="cls-4" d="M194.21,33.59H175.28q.12,4,2.3,6.08a7.53,7.53,0,0,0,5.33,2,7.73,7.73,0,0,0,4.77-1.44A6,6,0,0,0,190,36.39h4.18a9.89,9.89,0,0,1-5.78,7.42,12.75,12.75,0,0,1-5.35,1.08,12.2,12.2,0,0,1-6-1.47,10.44,10.44,0,0,1-4.12-4.21,13.29,13.29,0,0,1-1.48-6.44,13.44,13.44,0,0,1,1.48-6.47A10.43,10.43,0,0,1,177,22.07a12.2,12.2,0,0,1,6-1.47,11.91,11.91,0,0,1,6,1.47A10.07,10.07,0,0,1,193,26a11,11,0,0,1,1.36,5.43A12.29,12.29,0,0,1,194.21,33.59Zm-4.66-6.3a6.27,6.27,0,0,0-2.72-2.63,8.2,8.2,0,0,0-3.75-.86,7.74,7.74,0,0,0-5.43,2,8.06,8.06,0,0,0-2.37,5.89h15.13A8,8,0,0,0,189.55,27.29Z"/><path class="cls-4" d="M203.44,12.67V44.58h-3.93V12.67Z"/><path class="cls-4" d="M209.78,12.22a3.14,3.14,0,0,1,3.88,0,2.22,2.22,0,0,1,.73,1.74,2.26,2.26,0,0,1-.73,1.75,3.14,3.14,0,0,1-3.88,0,2.26,2.26,0,0,1-.73-1.75A2.22,2.22,0,0,1,209.78,12.22Zm3.88,8.69V44.58h-3.92V20.91Z"/><path class="cls-4" d="M239.11,23.17q2.53,2.66,2.54,7.66V44.58h-3.92V31.17a7.57,7.57,0,0,0-1.81-5.43,6.47,6.47,0,0,0-4.92-1.9,6.75,6.75,0,0,0-5.18,2.09,8.69,8.69,0,0,0-1.94,6.1V44.58H220V20.91h3.92v5.6a8.13,8.13,0,0,1,3.22-4.44,9.32,9.32,0,0,1,5.32-1.55A8.85,8.85,0,0,1,239.11,23.17Z"/><path class="cls-4" d="M269.3,33.59H250.36q.13,4,2.31,6.08a7.53,7.53,0,0,0,5.33,2,7.7,7.7,0,0,0,4.76-1.44,5.93,5.93,0,0,0,2.35-3.86h4.19a9.89,9.89,0,0,1-5.78,7.42,12.78,12.78,0,0,1-5.35,1.08,12.2,12.2,0,0,1-6-1.47A10.44,10.44,0,0,1,248,39.21a13.29,13.29,0,0,1-1.48-6.44A13.44,13.44,0,0,1,248,26.3a10.43,10.43,0,0,1,4.12-4.23,12.2,12.2,0,0,1,6-1.47,11.91,11.91,0,0,1,6,1.47A10.07,10.07,0,0,1,268.11,26a11,11,0,0,1,1.36,5.43A12.29,12.29,0,0,1,269.3,33.59Zm-4.66-6.3a6.27,6.27,0,0,0-2.72-2.63,8.2,8.2,0,0,0-3.75-.86,7.72,7.72,0,0,0-5.43,2,8.1,8.1,0,0,0-2.38,5.89H265.5A8,8,0,0,0,264.64,27.29Z"/><path class="cls-4" d="M97,89a3.32,3.32,0,0,1-.54,1.81A3.57,3.57,0,0,1,95,92.09,4.73,4.73,0,0,1,90.68,92a4.46,4.46,0,0,1-1.58-1.56,4.08,4.08,0,0,1-.58-2.11V84.91a4.12,4.12,0,0,1,.58-2.12,4.37,4.37,0,0,1,1.55-1.56,4.69,4.69,0,0,1,4.3-.09,3.64,3.64,0,0,1,1.47,1.27,3.24,3.24,0,0,1,.55,1.8v.84h2.44V84.2a5.57,5.57,0,0,0-.91-3.09A6.3,6.3,0,0,0,96.09,79a7.1,7.1,0,0,0-6.69.14A6.72,6.72,0,0,0,87,81.55a6.63,6.63,0,0,0-.9,3.36v3.42A6.54,6.54,0,0,0,87,91.69a6.77,6.77,0,0,0,2.46,2.44,6.51,6.51,0,0,0,3.37.91,7.3,7.3,0,0,0,3.34-.77,6.13,6.13,0,0,0,2.41-2.15,5.55,5.55,0,0,0,.9-3.08v-.85H97Z"/><polygon class="cls-4" points="112.08 85.37 104.14 85.37 104.14 78.5 101.67 78.5 101.67 94.73 104.14 94.73 104.14 87.84 112.08 87.84 112.08 94.73 114.55 94.73 114.55 78.5 112.08 78.5 112.08 85.37"/><polygon class="cls-4" points="118.01 80.98 122.33 80.98 122.33 92.26 118.01 92.26 118.01 94.73 129.12 94.73 129.12 92.26 124.78 92.26 124.78 80.98 129.12 80.98 129.12 78.5 118.01 78.5 118.01 80.98"/><path class="cls-4" d="M144.52,87.54h0a5.66,5.66,0,0,0,.32-6.43,5.4,5.4,0,0,0-2.33-2,6.11,6.11,0,0,0-1.41-.43,10.81,10.81,0,0,0-1.73-.13H133V94.73h2.47v-5h4.63l3.56,5h3l-4-5.61A5.47,5.47,0,0,0,144.52,87.54ZM135.46,81h3.91a5.76,5.76,0,0,1,2,.26,3.13,3.13,0,0,1,1.46,4.44,3.28,3.28,0,0,1-1.17,1.17,3,3,0,0,1-1.57.42h-4.6Z"/><path class="cls-4" d="M157.88,79.11a6.91,6.91,0,0,0-6.87,0,6.83,6.83,0,0,0-2.49,2.49A6.7,6.7,0,0,0,147.6,85V88.2a6.84,6.84,0,1,0,13.68,0V85a6.85,6.85,0,0,0-3.4-5.92Zm.93,5.92V88.2a4.25,4.25,0,0,1-.58,2.19,4.36,4.36,0,0,1-6,1.6,4.36,4.36,0,0,1-1.59-1.6,4.25,4.25,0,0,1-.58-2.19V85a4.36,4.36,0,0,1,4.36-4.37,4.37,4.37,0,0,1,3.79,2.18A4.25,4.25,0,0,1,158.81,85Z"/><path class="cls-4" d="M174,79.22h0a6.78,6.78,0,0,0-3.09-.72h-6.69V94.73h2.47v-4.4h4.22a6.61,6.61,0,0,0,3-.66,5.78,5.78,0,0,0,2.35-2.17,5.9,5.9,0,0,0,.87-3.1,5.61,5.61,0,0,0-.87-3.1A5.85,5.85,0,0,0,174,79.22Zm-3.09,8.63h-4.22V81h4.22a4.24,4.24,0,0,1,1.81.33,3.32,3.32,0,0,1,1.44,1.26,3.29,3.29,0,0,1,.53,1.83,3.34,3.34,0,0,1-.53,1.86,3.41,3.41,0,0,1-1.43,1.26A4.2,4.2,0,0,1,170.91,87.85Z"/><path class="cls-4" d="M190.86,87.54h0A5.52,5.52,0,0,0,192,84.11a5.6,5.6,0,0,0-.85-3,5.42,5.42,0,0,0-2.34-2,6.11,6.11,0,0,0-1.41-.43,10.58,10.58,0,0,0-1.72-.13h-6.38V94.73h2.47v-5h4.63l3.56,5h3l-4-5.61A5.47,5.47,0,0,0,190.86,87.54ZM181.8,81h3.91a5.66,5.66,0,0,1,2,.26,3.07,3.07,0,0,1,1.39,1.14,3.14,3.14,0,0,1,.49,1.73,3,3,0,0,1-.42,1.57A3.22,3.22,0,0,1,188,86.84a3,3,0,0,1-1.57.43h-4.6Z"/><path class="cls-4" d="M199.81,78.5l-6.67,16.23h2.65l2-4.8h6l2,4.8h2.67L201.76,78.5Zm3,9h-4l2-4.88Z"/><path class="cls-4" d="M220.57,89a3.32,3.32,0,0,1-.54,1.81,3.57,3.57,0,0,1-1.47,1.26,4.73,4.73,0,0,1-4.32-.09,4.46,4.46,0,0,1-1.58-1.56,4.08,4.08,0,0,1-.58-2.11V84.91a4.12,4.12,0,0,1,.58-2.12,4.37,4.37,0,0,1,1.55-1.56,4.69,4.69,0,0,1,4.3-.09A3.64,3.64,0,0,1,220,82.41a3.24,3.24,0,0,1,.55,1.8v.84H223V84.2a5.57,5.57,0,0,0-.91-3.09A6.3,6.3,0,0,0,219.65,79a7.1,7.1,0,0,0-6.69.14,6.72,6.72,0,0,0-2.43,2.45,6.63,6.63,0,0,0-.9,3.36v3.42a6.54,6.54,0,0,0,.91,3.36A6.77,6.77,0,0,0,213,94.13a6.51,6.51,0,0,0,3.37.91,7.3,7.3,0,0,0,3.34-.77,6.2,6.2,0,0,0,2.41-2.15A5.55,5.55,0,0,0,223,89v-.85h-2.44Z"/><polygon class="cls-4" points="224.95 80.98 230.44 80.98 230.44 94.73 232.89 94.73 232.89 80.98 238.38 80.98 238.38 78.5 224.95 78.5 224.95 80.98"/><polygon class="cls-4" points="241.57 80.98 245.89 80.98 245.89 92.26 241.57 92.26 241.57 94.73 252.68 94.73 252.68 92.26 248.34 92.26 248.34 80.98 252.68 80.98 252.68 78.5 241.57 78.5 241.57 80.98"/><path class="cls-4" d="M266.92,88.19V89a3.49,3.49,0,0,1-.54,1.81,3.7,3.7,0,0,1-1.47,1.26,4.73,4.73,0,0,1-4.32-.09A4.46,4.46,0,0,1,259,90.44a4,4,0,0,1-.58-2.11V84.91a4.11,4.11,0,0,1,.57-2.12,4.4,4.4,0,0,1,1.56-1.56,4.67,4.67,0,0,1,4.29-.09,3.67,3.67,0,0,1,1.48,1.27,3.31,3.31,0,0,1,.54,1.8l0,.84h2.43V84.2a5.49,5.49,0,0,0-.91-3.09A6.23,6.23,0,0,0,266,79a7.08,7.08,0,0,0-6.68.14,6.72,6.72,0,0,0-2.43,2.45,6.53,6.53,0,0,0-.9,3.36v3.42a6.45,6.45,0,0,0,.91,3.36,6.74,6.74,0,0,0,2.45,2.44,6.53,6.53,0,0,0,3.37.91,7.27,7.27,0,0,0,3.34-.77,6.16,6.16,0,0,0,2.42-2.15,5.63,5.63,0,0,0,.9-3.08v-.85Z"/><rect class="cls-3" x="86.03" y="50.86" width="183.23" height="20.93"/><polygon class="cls-5" points="140.56 54.91 140 54.91 140 55.47 140 67.17 140 67.73 140.56 67.73 141.88 67.73 142.44 67.73 142.44 67.17 142.44 62.54 148.02 62.54 148.58 62.54 148.58 61.98 148.58 60.65 148.58 60.09 148.02 60.09 142.44 60.09 142.44 57.36 149.47 57.36 150.03 57.36 150.03 56.8 150.03 55.47 150.03 54.91 149.47 54.91 140.56 54.91"/><path class="cls-5" d="M158.87,55.26l-.14-.35h-1.87l-.14.35L151.91,67l-.32.77h2.63l.15-.34,1.35-3.28h4.15l1.33,3.27.15.35H164l-.31-.77Zm0,6.42h-2.15l1.07-2.62Z"/><polygon class="cls-5" points="174.63 54.91 174.3 54.91 174.14 55.2 171.04 60.7 167.92 55.2 167.76 54.91 167.43 54.91 166.21 54.91 165.65 54.91 165.65 55.47 165.65 67.17 165.65 67.73 166.21 67.73 167.54 67.73 168.1 67.73 168.1 67.17 168.1 60.47 170.05 63.91 170.21 64.19 170.54 64.19 171.52 64.19 171.85 64.19 172.01 63.91 173.92 60.55 173.92 67.17 173.92 67.73 174.47 67.73 175.8 67.73 176.36 67.73 176.36 67.17 176.36 55.47 176.36 54.91 175.8 54.91 174.63 54.91"/><polygon class="cls-5" points="180.31 54.91 179.75 54.91 179.75 55.47 179.75 56.8 179.75 57.36 180.31 57.36 183.01 57.36 183.01 65.28 180.31 65.28 179.75 65.28 179.75 65.84 179.75 67.17 179.75 67.73 180.31 67.73 188.16 67.73 188.72 67.73 188.72 67.17 188.72 65.84 188.72 65.28 188.16 65.28 185.44 65.28 185.44 57.36 188.16 57.36 188.72 57.36 188.72 56.8 188.72 55.47 188.72 54.91 188.16 54.91 180.31 54.91"/><polygon class="cls-5" points="195.58 65.28 195.58 55.47 195.58 54.91 195.02 54.91 193.69 54.91 193.13 54.91 193.13 55.47 193.13 67.17 193.13 67.73 193.69 67.73 202.66 67.73 203.22 67.73 203.22 67.17 203.22 65.84 203.22 65.28 202.66 65.28 195.58 65.28"/><polygon class="cls-5" points="214.26 54.91 212.68 54.91 212.37 54.91 212.21 55.16 209.02 60.01 205.8 55.16 205.63 54.91 205.33 54.91 203.75 54.91 202.7 54.91 203.28 55.78 207.79 62.59 207.79 67.17 207.79 67.73 208.35 67.73 209.68 67.73 210.24 67.73 210.24 67.17 210.24 62.59 214.73 55.78 215.3 54.91 214.26 54.91"/></g></g></svg>